<svg width="24" height="24" viewBox="0 0 24 24" fill="none" xmlns="http://www.w3.org/2000/svg">
<path opacity="0.4" d="M7.2 4.25C5.5704 4.25 4.25 5.5704 4.25 7.2V16.8C4.25 18.4296 5.5704 19.75 7.2 19.75H16.8C18.4296 19.75 19.75 18.4296 19.75 16.8V7.2C19.75 5.5704 18.4296 4.25 16.8 4.25H7.2Z" fill="#1D7BF5"/>
<path fill-rule="evenodd" clip-rule="evenodd" d="M8.5 2.75C8.5 2.33579 8.83579 2 9.25 2C9.66421 2 10 2.33579 10 2.75V4.25H8.5V2.75ZM14 2.75C14 2.33579 14.3358 2 14.75 2C15.1642 2 15.5 2.33579 15.5 2.75V4.25H14V2.75ZM8.5 19.75H10V21.25C10 21.6642 9.66421 22 9.25 22C8.83579 22 8.5 21.6642 8.5 21.25V19.75ZM14 19.75H15.5V21.25C15.5 21.6642 15.1642 22 14.75 22C14.3358 22 14 21.6642 14 21.25V19.75ZM2.75 8.5H4.25V10H2.75C2.33579 10 2 9.66421 2 9.25C2 8.83579 2.33579 8.5 2.75 8.5ZM19.75 8.5H21.25C21.6642 8.5 22 8.83579 22 9.25C22 9.66421 21.6642 10 21.25 10H19.75V8.5ZM2.75 14H4.25V15.5H2.75C2.33579 15.5 2 15.1642 2 14.75C2 14.3358 2.33579 14 2.75 14ZM19.75 14H21.25C21.6642 14 22 14.3358 22 14.75C22 15.1642 21.6642 15.5 21.25 15.5H19.75V14Z" fill="#1D7BF5"/>
<path d="M8.75 8.6C8.75 8.10294 9.15294 7.7 9.65 7.7H14.35C14.8471 7.7 15.25 8.10294 15.25 8.6V15.4C15.25 15.8971 14.8471 16.3 14.35 16.3H9.65C9.15294 16.3 8.75 15.8971 8.75 15.4V8.6Z" fill="#1D7BF5"/>
<path opacity="0.65" d="M10.75 10.25C10.75 9.97386 10.9739 9.75 11.25 9.75H12.75C13.0261 9.75 13.25 9.97386 13.25 10.25C13.25 10.5261 13.0261 10.75 12.75 10.75H11.25C10.9739 10.75 10.75 10.5261 10.75 10.25ZM10.75 13.75C10.75 13.4739 10.9739 13.25 11.25 13.25H12.75C13.0261 13.25 13.25 13.4739 13.25 13.75C13.25 14.0261 13.0261 14.25 12.75 14.25H11.25C10.9739 14.25 10.75 14.0261 10.75 13.75Z" fill="white"/>
</svg>
