<svg width="24" height="24" viewBox="0 0 24 24" fill="none" xmlns="http://www.w3.org/2000/svg">
<g opacity="0.4">
<path d="M21.4286 9.6V5.6C21.4286 5.17565 21.263 4.76869 20.9683 4.46863C20.6736 4.16857 20.2739 4 19.8571 4H18C17.7239 4 17.5 4.22386 17.5 4.5V5.1C17.5 5.37614 17.7239 5.6 18 5.6H19.8571V9.6C19.8588 10.0559 19.9567 10.5061 20.144 10.9201C20.3313 11.3342 20.6038 11.7024 20.943 12C20.6038 12.2976 20.3313 12.6658 20.144 13.0799C19.9567 13.4939 19.8588 13.9441 19.8571 14.4V18.4H18C17.7239 18.4 17.5 18.6239 17.5 18.9V19.5C17.5 19.7761 17.7239 20 18 20H19.8571C20.2739 20 20.6736 19.8314 20.9683 19.5314C21.263 19.2313 21.4286 18.8243 21.4286 18.4V14.4C21.4286 13.9757 21.5941 13.5687 21.8888 13.2686C22.0644 13.0899 22.2772 12.9578 22.5087 12.8802C22.7705 12.7925 23 12.5761 23 12.3V11.7C23 11.4239 22.7705 11.2075 22.5087 11.1198C22.2772 11.0422 22.0644 10.9101 21.8888 10.7314C21.5941 10.4313 21.4286 10.0243 21.4286 9.6Z" fill="#1D7BF5"/>
<path d="M4.14286 9.6V5.6H6C6.27614 5.6 6.5 5.37614 6.5 5.1V4.5C6.5 4.22386 6.27614 4 6 4H4.14286C3.72609 4 3.32639 4.16857 3.03169 4.46863C2.73699 4.76869 2.57143 5.17565 2.57143 5.6V9.6C2.57143 10.0243 2.40587 10.4313 2.11117 10.7314C1.93562 10.9101 1.72281 11.0422 1.49133 11.1198C1.2295 11.2075 1 11.4239 1 11.7V12.3C1 12.5761 1.2295 12.7925 1.49133 12.8802C1.72281 12.9578 1.93562 13.0899 2.11117 13.2686C2.40587 13.5687 2.57143 13.9757 2.57143 14.4V18.4C2.57143 18.8243 2.73699 19.2313 3.03169 19.5314C3.32639 19.8314 3.72609 20 4.14286 20H6C6.27614 20 6.5 19.7761 6.5 19.5V18.9C6.5 18.6239 6.27614 18.4 6 18.4H4.14286V14.4C4.14116 13.9441 4.04333 13.4939 3.856 13.0799C3.66866 12.6658 3.39619 12.2976 3.057 12C3.39619 11.7024 3.66866 11.3342 3.856 10.9201C4.04333 10.5061 4.14116 10.0559 4.14286 9.6Z" fill="#1D7BF5"/>
</g>
<path d="M12.7949 14.1216H10.9098C10.9148 13.6781 10.9493 13.2961 11.0133 12.9758C11.0823 12.6505 11.1981 12.3573 11.3608 12.0961C11.5283 11.8349 11.7501 11.5762 12.0261 11.3199C12.2577 11.1129 12.4598 10.9158 12.6323 10.7285C12.8048 10.5412 12.9403 10.349 13.0389 10.1519C13.1374 9.94982 13.1867 9.72558 13.1867 9.47917C13.1867 9.19332 13.1424 8.95677 13.0537 8.76949C12.9699 8.57728 12.8417 8.4319 12.6692 8.33333C12.5017 8.23477 12.2898 8.18548 12.0335 8.18548C11.8216 8.18548 11.6244 8.2323 11.4421 8.32594C11.2598 8.41465 11.1094 8.55264 10.9912 8.73992C10.8778 8.9272 10.8187 9.17361 10.8137 9.47917H8.66992C8.68471 8.80399 8.83995 8.24709 9.13565 7.80847C9.43627 7.36492 9.83793 7.03719 10.3406 6.82527C10.8433 6.60842 11.4076 6.5 12.0335 6.5C12.7235 6.5 13.3149 6.61335 13.8077 6.84005C14.3005 7.06183 14.6775 7.38956 14.9387 7.82325C15.1999 8.25202 15.3305 8.77442 15.3305 9.39046C15.3305 9.81922 15.2468 10.2012 15.0792 10.5363C14.9116 10.8665 14.6923 11.1745 14.4213 11.4603C14.1502 11.7462 13.852 12.0419 13.5268 12.3474C13.2459 12.5988 13.0537 12.8625 12.9502 13.1384C12.8516 13.4144 12.7999 13.7422 12.7949 14.1216ZM10.6881 16.4059C10.6881 16.0905 10.7965 15.8293 11.0133 15.6223C11.2302 15.4104 11.521 15.3044 11.8856 15.3044C12.2454 15.3044 12.5337 15.4104 12.7506 15.6223C12.9723 15.8293 13.0832 16.0905 13.0832 16.4059C13.0832 16.7115 12.9723 16.9702 12.7506 17.1821C12.5337 17.394 12.2454 17.5 11.8856 17.5C11.521 17.5 11.2302 17.394 11.0133 17.1821C10.7965 16.9702 10.6881 16.7115 10.6881 16.4059Z" fill="#1D7BF5"/>
</svg>
